v -0.5 -0.5 0.125
v -0.5 -0.25 0.078125
v -0.5 0.0 0.0625
v -0.5 0.25 0.078125
v -0.5 0.5 0.125
v -0.25 -0.5 0.078125
v -0.25 -0.25 0.03125
v -0.25 0.0 0.015625
v -0.25 0.25 0.03125
v -0.25 0.5 0.078125
v 0.0 -0.5 0.0625
v 0.0 -0.25 0.015625
v 0.0 0.0 0.0
v 0.0 0.25 0.015625
v 0.0 0.5 0.0625
v 0.25 -0.5 0.078125
v 0.25 -0.25 0.03125
v 0.25 0.0 0.015625
v 0.25 0.25 0.03125
v 0.25 0.5 0.078125
v 0.5 -0.5 0.125
v 0.5 -0.25 0.078125
v 0.5 0.0 0.0625
v 0.5 0.25 0.078125
v 0.5 0.5 0.125
vn 0.19958020746707916 0.19958020746707916 0.9593411684036255
vn 0.1619356870651245 0.1619356870651245 0.9734236598014832
vn 0.20279310643672943 0.08142417669296265 0.9758304357528687
vn 0.1637616753578186 0.041166506707668304 0.9856405854225159
vn 0.2031034231185913 -0.04025866091251373 0.9783293008804321
vn 0.16316385567188263 -0.08142420649528503 0.9832333326339722
vn 0.20047065615653992 -0.16021844744682312 0.966509997844696
vn 0.16021844744682312 -0.20047065615653992 0.966509997844696
vn 0.08142417669296265 0.20279310643672943 0.9758304357528687
vn 0.041166506707668304 0.1637616753578186 0.9856405854225159
vn 0.0826568678021431 0.0826568678021431 0.9931443929672241
vn 0.04148726537823677 0.04148726537823677 0.9982772469520569
vn 0.0826568752527237 -0.041170693933963776 0.9957273006439209
vn 0.041170693933963776 -0.0826568752527237 0.9957273006439209
vn 0.08142420649528503 -0.16316385567188263 0.9832333326339722
vn 0.04025866091251373 -0.2031034380197525 0.9783293008804321
vn -0.04025866091251373 0.2031034380197525 0.9783293008804321
vn -0.08142420649528503 0.16316385567188263 0.9832333326339722
vn -0.041170693933963776 0.0826568752527237 0.9957273006439209
vn -0.0826568752527237 0.041170693933963776 0.9957273006439209
vn -0.04148726537823677 -0.04148726537823677 0.9982772469520569
vn -0.0826568678021431 -0.0826568678021431 0.9931443929672241
vn -0.041166506707668304 -0.1637616753578186 0.9856405854225159
vn -0.08142417669296265 -0.20279310643672943 0.9758304357528687
vn -0.16021844744682312 0.20047065615653992 0.966509997844696
vn -0.20047065615653992 0.16021844744682312 0.966509997844696
vn -0.16316385567188263 0.08142420649528503 0.9832333326339722
vn -0.2031034231185913 0.04025866091251373 0.9783293008804321
vn -0.1637616753578186 -0.041166506707668304 0.9856405854225159
vn -0.20279310643672943 -0.08142417669296265 0.9758304357528687
vn -0.1619356870651245 -0.1619356870651245 0.9734236598014832
vn -0.19958020746707916 -0.19958020746707916 0.9593411684036255
s off
f 1//1 6//1 2//1
f 7//2 2//2 6//2
f 2//3 7//3 3//3
f 8//4 3//4 7//4
f 3//5 8//5 4//5
f 9//6 4//6 8//6
f 4//7 9//7 5//7
f 10//8 5//8 9//8
f 6//9 11//9 7//9
f 12//10 7//10 11//10
f 7//11 12//11 8//11
f 13//12 8//12 12//12
f 8//13 13//13 9//13
f 14//14 9//14 13//14
f 9//15 14//15 10//15
f 15//16 10//16 14//16
f 11//17 16//17 12//17
f 17//18 12//18 16//18
f 12//19 17//19 13//19
f 18//20 13//20 17//20
f 13//21 18//21 14//21
f 19//22 14//22 18//22
f 14//23 19//23 15//23
f 20//24 15//24 19//24
f 16//25 21//25 17//25
f 22//26 17//26 21//26
f 17//27 22//27 18//27
f 23//28 18//28 22//28
f 18//29 23//29 19//29
f 24//30 19//30 23//30
f 19//31 24//31 20//31
f 25//32 20//32 24//32
