v -0.5 -0.5 0.125
v -0.5 -0.25 0.078125
v -0.5 0.0 0.0625
v -0.5 0.25 0.078125
v -0.5 0.5 0.125
v -0.25 -0.5 0.078125
v -0.25 -0.25 0.03125
v -0.25 0.0 0.015625
v -0.25 0.25 0.03125
v -0.25 0.5 0.078125
v 0.0 -0.5 0.0625
v 0.0 -0.25 0.015625
v 0.0 0.0 0.0
v 0.0 0.25 0.015625
v 0.0 0.5 0.0625
v 0.25 -0.5 0.078125
v 0.25 -0.25 0.03125
v 0.25 0.0 0.015625
v 0.25 0.25 0.03125
v 0.25 0.5 0.078125
v 0.5 -0.5 0.125
v 0.5 -0.25 0.078125
v 0.5 0.0 0.0625
v 0.5 0.25 0.078125
v 0.5 0.5 0.125
vn 0.2357022762298584 0.2357022762298584 0.9428091049194336
vn 0.24077171087265015 0.12038585543632507 0.9630868434906006
vn 0.24253563582897186 -0.0 0.9701425433158875
vn 0.24077171087265015 -0.12038585543632507 0.9630868434906006
vn 0.2357022762298584 -0.2357022762298584 0.9428091049194336
vn 0.12038585543632507 0.24077171087265015 0.9630868434906006
vn 0.12309148907661438 0.12309148907661438 0.984731912612915
vn 0.12403473258018494 -0.0 0.9922778606414795
vn 0.12309148907661438 -0.12309148907661438 0.984731912612915
vn 0.12038585543632507 -0.24077171087265015 0.9630868434906006
vn -0.0 0.24253563582897186 0.9701425433158875
vn -0.0 0.12403473258018494 0.9922778606414795
vn -0.0 -0.0 1.0
vn -0.0 -0.12403473258018494 0.9922778606414795
vn -0.0 -0.24253563582897186 0.9701425433158875
vn -0.12038585543632507 0.24077171087265015 0.9630868434906006
vn -0.12309148907661438 0.12309148907661438 0.984731912612915
vn -0.12403473258018494 -0.0 0.9922778606414795
vn -0.12309148907661438 -0.12309148907661438 0.984731912612915
vn -0.12038585543632507 -0.24077171087265015 0.9630868434906006
vn -0.2357022762298584 0.2357022762298584 0.9428091049194336
vn -0.24077171087265015 0.12038585543632507 0.9630868434906006
vn -0.24253563582897186 -0.0 0.9701425433158875
vn -0.24077171087265015 -0.12038585543632507 0.9630868434906006
vn -0.2357022762298584 -0.2357022762298584 0.9428091049194336
s 1
f 1//1 6//6 2//2
f 7//7 2//2 6//6
f 2//2 7//7 3//3
f 8//8 3//3 7//7
f 3//3 8//8 4//4
f 9//9 4//4 8//8
f 4//4 9//9 5//5
f 10//10 5//5 9//9
f 6//6 11//11 7//7
f 12//12 7//7 11//11
f 7//7 12//12 8//8
f 13//13 8//8 12//12
f 8//8 13//13 9//9
f 14//14 9//9 13//13
f 9//9 14//14 10//10
f 15//15 10//10 14//14
f 11//11 16//16 12//12
f 17//17 12//12 16//16
f 12//12 17//17 13//13
f 18//18 13//13 17//17
f 13//13 18//18 14//14
f 19//19 14//14 18//18
f 14//14 19//19 15//15
f 20//20 15//15 19//19
f 16//16 21//21 17//17
f 22//22 17//17 21//21
f 17//17 22//22 18//18
f 23//23 18//18 22//22
f 18//18 23//23 19//19
f 24//24 19//19 23//23
f 19//19 24//24 20//20
f 25//25 20//20 24//24