<?xml version="1.0" encoding="UTF-8" standalone="no"?>
<!-- Created with Inkscape (http://www.inkscape.org/) -->

<svg
   xmlns:dc="http://purl.org/dc/elements/1.1/"
   xmlns:cc="http://creativecommons.org/ns#"
   xmlns:rdf="http://www.w3.org/1999/02/22-rdf-syntax-ns#"
   xmlns:svg="http://www.w3.org/2000/svg"
   xmlns="http://www.w3.org/2000/svg"
   xmlns:xlink="http://www.w3.org/1999/xlink"
   xmlns:sodipodi="http://sodipodi.sourceforge.net/DTD/sodipodi-0.dtd"
   xmlns:inkscape="http://www.inkscape.org/namespaces/inkscape"
   width="210mm"
   height="297mm"
   viewBox="0 0 210 297"
   version="1.1"
   id="svg8"
   inkscape:version="0.92.4 (5da689c313, 2019-01-14)"
   sodipodi:docname="SplashScreen.svg"
   inkscape:export-filename="C:\Neo\Programming\Qt\tonatiuh\new\splash\splashscreen.png"
   inkscape:export-xdpi="371.56564"
   inkscape:export-ydpi="371.56564">
  <defs
     id="defs2">
    <clipPath
       clipPathUnits="userSpaceOnUse"
       id="clipPath5416">
      <path
         sodipodi:nodetypes="cccccc"
         inkscape:connector-curvature="0"
         id="path5418"
         d="m 17.67334,64.294266 -0.02429,-20.25096 h 42.331784 l -0.09043,20.151741 C 54.697619,65.653854 44.155016,67.414534 39.21156,70.336275 33.805085,67.579899 22.866121,65.753073 17.673341,64.294266 Z"
         style="fill:#876464;fill-opacity:1;stroke:none;stroke-width:0.09999999;stroke-linecap:butt;stroke-linejoin:miter;stroke-miterlimit:4;stroke-dasharray:none;stroke-opacity:0.23991508" />
    </clipPath>
    <clipPath
       clipPathUnits="userSpaceOnUse"
       id="clipPath902">
      <path
         style="fill:#876464;fill-opacity:0.3057607;stroke:none;stroke-width:0.09999999;stroke-linecap:butt;stroke-linejoin:miter;stroke-miterlimit:4;stroke-dasharray:none;stroke-opacity:0.23991508"
         d="m 30.021194,219.017 -0.02429,-20.25096 h 42.331783 l -0.09043,20.15174 c -5.192787,1.4588 -15.73539,3.21948 -20.678844,6.14122 -5.406477,-2.75637 -16.34544,-4.5832 -21.538221,-6.042 z"
         id="path904"
         inkscape:connector-curvature="0"
         sodipodi:nodetypes="cccccc" />
    </clipPath>
    <clipPath
       clipPathUnits="userSpaceOnUse"
       id="clipPath936">
      <path
         style="fill:#876464;fill-opacity:0.3057607;stroke:none;stroke-width:0.09999999;stroke-linecap:butt;stroke-linejoin:miter;stroke-miterlimit:4;stroke-dasharray:none;stroke-opacity:0.23991508"
         d="m 30.021193,219.01701 -0.02429,-20.25097 h 42.33179 l -0.0904,20.15175 -12.096364,3.05109 -9.28407,3.64813 -8.762958,-3.57939 -12.073681,-3.02061 z"
         id="path938"
         inkscape:connector-curvature="0"
         sodipodi:nodetypes="ccccccccc" />
    </clipPath>
  </defs>
  <sodipodi:namedview
     id="base"
     pagecolor="#ffffff"
     bordercolor="#666666"
     borderopacity="1.0"
     inkscape:pageopacity="0.0"
     inkscape:pageshadow="2"
     inkscape:zoom="0.70710682"
     inkscape:cx="-512.07555"
     inkscape:cy="113.99909"
     inkscape:document-units="mm"
     inkscape:current-layer="svg8"
     showgrid="false"
     showguides="true"
     inkscape:lockguides="true"
     inkscape:window-width="3000"
     inkscape:window-height="1875"
     inkscape:window-x="-13"
     inkscape:window-y="-13"
     inkscape:window-maximized="1"
     inkscape:guide-bbox="true" />
  <rect
     style="fill:#f0f0f0;fill-opacity:1;stroke:none;stroke-width:0.16723688;stroke-linejoin:miter;stroke-miterlimit:4;stroke-dasharray:none;stroke-dashoffset:0;stroke-opacity:1"
     id="rect859"
     width="182.3282"
     height="53.094151"
     x="14.142713"
     y="32.750687"
     inkscape:export-filename="C:\Users\Victor\Desktop\bitmap.png"
     inkscape:export-xdpi="244.93843"
     inkscape:export-ydpi="244.93843" />
  <metadata
     id="metadata5">
    <rdf:RDF>
      <cc:Work
         rdf:about="">
        <dc:format>image/svg+xml</dc:format>
        <dc:type
           rdf:resource="http://purl.org/dc/dcmitype/StillImage" />
        <dc:title />
      </cc:Work>
    </rdf:RDF>
  </metadata>
  <g
     inkscape:label="Layer 1"
     inkscape:groupmode="layer"
     id="layer1">
    <text
       xml:space="preserve"
       style="font-style:normal;font-weight:normal;font-size:6.54462671px;line-height:1.25;font-family:sans-serif;text-align:center;letter-spacing:0px;word-spacing:0px;text-anchor:middle;fill:#4b4b4b;fill-opacity:1;stroke:none;stroke-width:1.21311653"
       x="104.86806"
       y="64.128494"
       id="text843"
       inkscape:export-filename="C:\Users\Victor\Desktop\bitmap.png"
       inkscape:export-xdpi="244.93843"
       inkscape:export-ydpi="244.93843"><tspan
         sodipodi:role="line"
         id="tspan841"
         x="104.80191"
         y="64.128494"
         style="font-style:normal;font-variant:normal;font-weight:normal;font-stretch:normal;font-size:5.64444447px;line-height:1;font-family:sans-serif;-inkscape-font-specification:sans-serif;font-variant-ligatures:normal;font-variant-caps:normal;font-variant-numeric:normal;font-feature-settings:normal;text-align:center;letter-spacing:-0.13229167px;word-spacing:0.5291667px;writing-mode:lr-tb;text-anchor:middle;fill:#4b4b4b;fill-opacity:1;stroke-width:1.21311653">ray tracing for solar energy</tspan></text>
    <text
       xml:space="preserve"
       style="font-style:normal;font-weight:normal;font-size:21.53815079px;line-height:1.25;font-family:sans-serif;text-align:center;letter-spacing:0px;word-spacing:0px;text-anchor:middle;fill:#4b4b4b;fill-opacity:1;stroke:#4b4b4b;stroke-width:0.41834894;stroke-linejoin:miter;stroke-miterlimit:4;stroke-dasharray:none;stroke-dashoffset:0;stroke-opacity:1"
       x="104.47195"
       y="54.448044"
       id="text857"
       transform="scale(1.0003587,0.99964142)"
       inkscape:export-filename="C:\Users\Victor\Desktop\bitmap.png"
       inkscape:export-xdpi="244.93843"
       inkscape:export-ydpi="244.93843"><tspan
         sodipodi:role="line"
         id="tspan855"
         x="104.47195"
         y="54.448044"
         style="font-style:normal;font-variant:normal;font-weight:normal;font-stretch:normal;font-size:21.64568329px;font-family:'Maiandra GD';-inkscape-font-specification:'Maiandra GD, Normal';font-variant-ligatures:normal;font-variant-caps:normal;font-variant-numeric:normal;font-feature-settings:normal;text-align:center;writing-mode:lr-tb;text-anchor:middle;fill:#4b4b4b;fill-opacity:1;stroke:#4b4b4b;stroke-width:0.41834894;stroke-linejoin:miter;stroke-miterlimit:4;stroke-dasharray:none;stroke-dashoffset:0;stroke-opacity:1">Tonatiuh</tspan></text>
    <rect
       style="fill:#d2d2d2;fill-opacity:1;stroke:none;stroke-width:0.1687872;stroke-linejoin:miter;stroke-miterlimit:4;stroke-dasharray:none;stroke-dashoffset:0;stroke-opacity:1"
       id="rect833"
       width="182.32155"
       height="5.5783911"
       x="13.084379"
       y="106.98257"
       ry="0"
       inkscape:export-filename="C:\Users\v.grigoriev\splashscreen.png"
       inkscape:export-xdpi="115.34803"
       inkscape:export-ydpi="115.34803" />
    <g
       id="g849"
       transform="matrix(1.2261688,0,0,1.2261688,41.558433,-242.87907)"
       inkscape:export-xdpi="244.93843"
       inkscape:export-ydpi="244.93843"
       inkscape:export-filename="C:\Users\Victor\Desktop\bitmap.png">
      <path
         d="m 105.74721,260.03111 c -0.0114,-0.005 -0.0138,-0.008 -0.022,-0.0155 l -0.008,-0.007 c -0.0205,-0.0188 -0.0545,-0.0521 -0.10024,-0.10411 -0.0844,-0.0959 -0.19764,-0.23623 -0.29719,-0.36024 -0.19738,-0.24604 -0.36048,-0.458 -0.39121,-0.49792 l -0.0502,-0.0654 -0.49216,-0.15176 -0.35935,-0.16754 0.192,-0.21582 0.65951,0.28236 0.49216,0.101 0.91012,0.6694 -7e-4,5.7e-4 c -0.002,0.002 -0.13237,0.11013 -0.26208,0.22805 -0.0579,0.0526 -0.13079,0.12014 -0.1823,0.17635 -0.0238,0.0258 -0.0447,0.0515 -0.0589,0.0722 -0.009,0.0127 -0.0136,0.0243 -0.016,0.0299 l 0.0565,-0.0352 0.0613,0.0477 -0.12471,0.0117 -0.006,10e-4 z m -3.37992,-1.01512 c -0.42943,-6e-5 -0.8536,-0.11875 -1.26066,-0.35276 l -4.4e-4,-2.5e-4 1.9e-4,-5.1e-4 c 0,0 0.0532,-0.10145 0.18237,-0.19618 0.12299,-0.0903 0.34483,-0.19821 0.70335,-0.1996 h 0.007 c 0.42461,0 0.94421,0.14435 1.54441,0.42905 -0.0203,0.0134 -0.49147,0.32025 -1.17645,0.32025 l 6.4e-4,6.3e-4 z m -1.86104,-0.41251 c -0.0794,0 -0.15075,-0.03 -0.20087,-0.0845 -0.0411,-0.0447 -0.0706,-0.1043 -0.0901,-0.18236 -0.0319,-0.12788 -0.0231,-0.25505 -0.0222,-0.26722 0.0333,-0.014 0.0673,-0.0217 0.099,-0.0224 l 0.007,-1.2e-4 c 0.15911,0 0.28451,0.13801 0.33825,0.27481 0.0305,0.0778 0.0364,0.14314 0.0174,0.19434 -0.019,0.0513 -0.0786,0.0868 -0.14827,0.0868 z m 3.27473,-0.37956 c -1.09996,-0.15708 -1.56621,-0.55477 -1.76366,-0.8607 -0.21056,-0.32626 -0.16734,-0.62808 -0.1669,-0.63112 l 1.9e-4,-8.8e-4 8.2e-4,-2.6e-4 c 3.2e-4,0 0.0672,-0.0181 0.16843,-0.0186 0.29262,0 1.04109,0.14719 1.76143,1.51076 l 4.5e-4,8.9e-4 -0.001,-6.4e-4 z m -2.25455,-0.21798 c -0.46992,-6e-5 -0.82768,-0.0811 -1.0634,-0.24104 -0.13548,-0.0919 -0.20176,-0.19282 -0.23357,-0.26138 -0.0298,-0.0643 -0.0366,-0.11761 -0.0376,-0.12819 0.0124,-0.006 0.20479,-0.0911 0.49203,-0.10456 0.0243,-0.001 0.0487,-0.002 0.0744,-0.002 0.36321,0 0.91551,0.1185 1.49834,0.68308 l 5.7e-4,5.7e-4 -6.9e-4,7e-5 c -0.26614,0.0349 -0.512,0.0532 -0.73061,0.0532 z m -2.275457,-0.0874 c -0.495518,0 -1.176255,-0.15132 -1.600804,-0.57581 l -4.44e-4,-5e-4 0.0013,-3.2e-4 c 0.0044,-10e-4 0.46523,-0.11805 0.983623,-0.13066 0.03092,-7.6e-4 0.06204,-0.001 0.09347,-0.001 0.464596,0 0.820204,0.0901 1.057064,0.26772 0.08269,0.062 0.127872,0.11976 0.13801,0.17634 0.0085,0.0473 -0.01647,0.0982 -0.06691,0.13624 -0.106644,0.0805 -0.297311,0.1235 -0.566805,0.12781 l -0.03802,10e-4 z m -1.605683,-0.82376 c -0.06102,0 -0.118304,-0.027 -0.157083,-0.0739 -0.03206,-0.0389 -0.05437,-0.0897 -0.07021,-0.15981 -0.02649,-0.1171 -0.0185,-0.23167 -0.01844,-0.23281 l 6.3e-5,-0.001 c 0.02307,-0.0109 0.04886,-0.0167 0.07712,-0.0174 h 1.9e-4 c 0.07331,0 0.129203,0.0399 0.164054,0.0734 0.04645,0.0447 0.08447,0.10423 0.106961,0.1676 0.02313,0.0653 0.02687,0.11988 0.01141,0.16697 -0.01267,0.0374 -0.05576,0.0767 -0.114058,0.0767 z m 3.70879,-0.0836 c -0.0794,0 -0.15075,-0.03 -0.20087,-0.0845 -0.0411,-0.0447 -0.0706,-0.1043 -0.0901,-0.18237 -0.0319,-0.12787 -0.0231,-0.25505 -0.0222,-0.26721 0.0333,-0.014 0.0673,-0.0217 0.099,-0.0224 l 0.007,-1.3e-4 c 0.15912,0 0.28452,0.13801 0.33825,0.27482 0.0305,0.0777 0.0364,0.14314 0.0174,0.19434 -0.019,0.052 -0.0792,0.0868 -0.14827,0.0868 z m -1.806556,-0.0748 c -0.997184,-0.0351 -1.51469,-0.31854 -1.773222,-0.5502 -0.145551,-0.13041 -0.226468,-0.25967 -0.26867,-0.34515 -0.03979,-0.0807 -0.05487,-0.14251 -0.05754,-0.15449 l 0.0013,-5.7e-4 c 1.9e-4,0 0.09435,-0.0337 0.246175,-0.0367 l 0.02332,-2.5e-4 c 0.336281,0 1.020882,0.14124 1.828223,1.08691 v 6.3e-4 z m 1.082916,-0.10075 c -0.80227,-0.12217 -1.256791,-0.46656 -1.49682,-0.73409 -0.251624,-0.28039 -0.326966,-0.54152 -0.330324,-0.55369 0.0015,-4.4e-4 0.09948,-0.026 0.247125,-0.0297 0.01071,-3.1e-4 0.02186,-4.4e-4 0.0332,-4.4e-4 0.01147,0 0.02313,1.3e-4 0.03504,4.4e-4 0.403512,0.009 1.136389,0.19156 1.511579,1.31706 h 6.4e-4 z m -4.11876,-0.38526 c -0.262904,0 -0.51795,-0.0304 -0.757979,-0.0904 -0.420051,-0.10506 -0.600262,-0.26543 -0.677441,-0.38152 -0.04385,-0.0659 -0.05975,-0.12369 -0.06533,-0.16057 -0.0054,-0.0352 -0.0025,-0.0633 -0.002,-0.068 l 0.002,-7e-4 c 0.0011,-2.5e-4 0.278808,-0.0782 0.663057,-0.0841 0.01514,-2.5e-4 0.03042,-3.8e-4 0.04594,-3.8e-4 0.185471,0 0.368027,0.0177 0.542663,0.0526 0.667619,0.13351 1.013849,0.63745 1.017207,0.64252 l 3.17e-4,5.7e-4 -8.24e-4,1.9e-4 c -0.0038,6.4e-4 -0.321897,0.09 -0.76799,0.09 z m 1.862314,-0.67675 c -0.08041,0 -0.151761,-0.0293 -0.200996,-0.0826 -0.04049,-0.0438 -0.06996,-0.10411 -0.08998,-0.18426 -0.03206,-0.12768 -0.02313,-0.25359 -0.02224,-0.26519 0.03333,-0.014 0.06729,-0.0217 0.09898,-0.0224 l 0.0071,-1.3e-4 c 0.158794,0 0.284384,0.13808 0.338309,0.27488 0.02966,0.0753 0.03485,0.13991 0.0154,0.19225 -0.01964,0.0532 -0.07731,0.0874 -0.146374,0.0874 z m -1.400379,-0.192 c -0.006,-10e-4 -0.378736,-0.0973 -0.758296,-0.33108 -0.351299,-0.21627 -0.781044,-0.59881 -0.833447,-1.19317 v -3.2e-4 l 8.87e-4,-2.5e-4 c 6.3e-5,0 0.0327,-0.008 0.08098,-0.01 0.0067,-2.6e-4 0.01375,-3.8e-4 0.02116,-3.8e-4 0.104933,0 0.319743,0.0295 0.579605,0.2271 0.330768,0.25219 0.63619,0.69195 0.909296,1.3085 z m 0.914365,-0.0336 c -0.0023,-9.5e-4 -0.267973,-0.10728 -0.600009,-0.38552 -0.30935,-0.25929 -0.744292,-0.72616 -1.059219,-1.47831 1.91e-4,-7e-5 0.07236,-0.0385 0.182874,-0.0455 0.0064,-4.4e-4 0.01286,-5.7e-4 0.01939,-5.7e-4 0.0095,0 0.01933,3.2e-4 0.02934,5.7e-4 0.152774,0.004 0.385452,0.0678 0.643414,0.34617 0.296297,0.3198 0.560785,0.84529 0.785986,1.56202 l 6.34e-4,0.002 -0.0019,-6.4e-4 z m -2.369239,-0.0691 c -0.305485,0 -0.410038,-0.1657 -0.440834,-0.23698 -0.05057,-0.11717 -0.03523,-0.23376 -0.03511,-0.2349 l 1.91e-4,-10e-4 c 0.04942,-0.0124 0.101701,-0.0192 0.15195,-0.0199 l 0.01046,-7e-5 c 0.240725,0 0.430759,0.12223 0.512247,0.24339 0.01616,0.024 0.06571,0.10734 0.02471,0.17242 -0.03295,0.0513 -0.107721,0.0773 -0.22368,0.0773 z m -0.676744,-0.85353 c -0.17058,0 -0.431583,-0.0105 -0.705956,-0.0603 -0.272092,-0.0495 -0.426323,-0.28083 -0.507748,-0.46611 -0.08865,-0.20182 -0.113678,-0.39433 -0.113931,-0.39629 h 7.6e-4 c 0.841621,0.0247 1.239114,0.27063 1.424331,0.47252 0.191238,0.20847 0.20258,0.42493 0.20315,0.43861 l -5.7e-4,7e-5 c -0.0013,0 -0.119761,0.0114 -0.300353,0.0114 z m 0.876346,-0.87571 c -0.0011,-0.001 -0.09727,-0.12027 -0.192188,-0.26791 -0.09967,-0.15493 -0.191871,-0.31658 -0.191871,-0.44889 0,-0.12774 -0.03003,-0.39704 -0.04797,-0.54614 -0.02268,-0.18915 -0.04562,-0.35105 -0.04752,-0.3648 l 8.24e-4,2.5e-4 c 0.02135,0.008 0.526441,0.19733 0.526441,0.67111 0,0.47454 -0.04676,0.95137 -0.04721,0.95612 l -6.4e-5,7e-4 h -6.33e-4 z m -0.654567,-0.045 c -0.0053,0 -0.01058,-5.1e-4 -0.01584,-0.001 -0.149289,-0.0249 -0.411623,-0.13903 -0.701647,-0.3053 -0.322024,-0.18465 -0.583533,-0.38247 -0.736308,-0.55705 -0.139277,-0.15917 -0.221969,-0.40915 -0.245858,-0.74302 -0.01692,-0.23692 0.0034,-0.43431 0.0055,-0.45389 0.02611,-0.009 0.05386,-0.0129 0.08333,-0.0129 0.111777,0.002 0.231095,0.0521 0.39217,0.1631 0.125527,0.0865 0.263917,0.2041 0.411242,0.3494 0.254223,0.25073 0.454205,0.50261 0.456169,0.50508 l 0.002,0.003 c 0.01679,0.0301 0.160758,0.28964 0.272915,0.54228 0.07122,0.16044 0.111967,0.27608 0.128252,0.3641 0.0093,0.0501 0.01204,0.083 -2.53e-4,0.11285 -0.0051,0.0124 -0.01489,0.0238 -0.0244,0.0284 -0.0089,0.004 -0.01774,0.006 -0.02788,0.006 z"
         id="branch"
         inkscape:connector-curvature="0"
         style="fill:#4e5b31;stroke-width:0.06336557" />
      <use
         id="use824"
         transform="matrix(-1,0,0,1,209.83401,-2.87225e-6)"
         xlink:href="#branch"
         x="0"
         y="0"
         width="100%"
         height="100%" />
      <path
         id="path826"
         d="m 122.47762,234.5091 -0.14922,0.0594 -0.0585,0.0233 -0.18084,-0.01 -0.16938,0.0813 -0.30035,0.20524 -0.0132,0.01 -0.11196,0.0292 -0.10399,-0.0449 -0.059,0.0269 -0.0203,0.12166 -0.0562,0.0874 -0.0692,0.0486 -0.23972,0.0245 -0.20213,0.10424 -0.26297,-0.0704 -0.12217,0.0478 -0.25973,0.23395 -0.13275,0.0629 -0.0464,-0.003 -0.17603,-0.009 -0.0743,0.0243 -0.11101,0.10727 -0.21006,0.0163 -0.0655,0.0453 -0.10252,0.20657 -0.11108,0.11457 -0.0636,0.0134 -0.0689,-0.0252 -0.0518,0.009 -0.0234,0.13219 -0.0503,0.0554 -0.14061,0.0484 -0.11234,0.0936 -0.0986,0.0506 -0.13205,-0.003 h -0.0304 l -0.13154,0.0726 -0.24745,0.0217 -0.1029,0.0982 -0.0227,0.021 -0.048,0.029 -0.0786,0.0469 -0.0193,0.0117 -0.0947,-0.0169 -0.11089,0.0439 -0.0449,-0.069 -0.0767,0.0461 -0.10164,0.004 -0.12661,-0.0563 -0.0964,-0.043 -0.0705,0.0102 -0.0245,0.12292 -0.002,0.0131 -0.0741,0.0987 -0.13839,0.0838 -0.0188,0.0245 -0.15746,0.20328 -0.29921,0.31467 -0.25302,0.12851 -0.26227,0.0798 -0.18357,0.15081 -0.48152,0.23869 -0.76,0.37811 -0.15544,0.0498 -0.22305,0.0356 -0.3978,0.1465 -0.35099,0.10589 -0.0195,0.006 -0.0695,0.021 -0.49489,0.14973 -0.23033,-0.0243 -0.13643,0.0496 -0.35516,-0.0394 -0.24694,0.005 -0.15632,0.0325 -0.29383,0.14092 -0.49596,0.23838 -0.16386,0.14993 -0.25517,0.13313 -0.29877,0.0946 6.9e-4,-0.12553 -0.002,-0.005 -0.10367,0.0328 -0.0748,0.0236 -0.24237,0.0374 h -0.13485 l -0.0837,-0.0243 -0.0129,0.004 -0.49539,0.16323 -0.55249,0.0534 -0.27646,0.0886 -0.20657,-0.003 -0.12914,0.0385 -0.25315,0.0309 -0.0905,-0.0241 -0.0204,-0.006 -0.74454,0.0323 -0.3404,-0.0385 -0.16247,0.0369 -0.27222,-0.0916 -0.39724,-0.0461 -0.0928,-0.0278 -0.20879,-0.062 -0.0945,0.0544 -0.0707,0.008 -0.169,-0.0613 -0.0608,-0.002 -0.13953,0.0504 -0.0803,-0.0206 -0.0746,-0.0594 -0.17496,-0.026 -0.10658,-0.0896 -0.59576,0.079 -0.16165,-0.0475 -0.54203,-0.15791 -0.0862,0.004 -0.10746,0.0805 -0.16146,0.0589 -0.14016,0.0364 -0.19086,0.007 -0.22159,-0.0582 -0.2285,-0.11076 -0.0845,-0.0201 -0.18845,0.019 -0.0577,0.005 -0.34635,-0.18579 -0.44622,-0.27906 -0.30276,-0.14549 -0.11368,-0.0184 -0.0153,0.0541 0.0564,0.17774 0.0192,0.17578 -0.006,0.16241 -0.003,0.10056 0.0283,0.0903 0.10931,0.12116 0.0456,0.12166 0.0333,0.33482 -3.8e-4,0.33977 -0.0532,0.54184 -0.0179,0.0825 -0.0634,0.28071 -0.0579,0.25783 -0.224696,0.68644 -0.06172,0.0851 -0.151507,0.10335 -0.343378,0.2337 -0.252829,0.1458 -0.08003,0.0331 -0.205241,0.0155 -0.127872,-0.007 -0.159237,-0.0862 -0.156323,-0.0402 -0.204798,-0.14726 -0.227799,-0.0471 -0.249724,-0.14435 -0.06501,-0.0781 -0.135982,-0.0128 -0.188576,-0.0566 1.27e-4,-3.2e-4 -0.06926,-0.0207 -0.04784,-0.0139 v -7e-5 l -0.240536,-0.007 -0.224314,-0.10353 -0.118113,-0.0285 -0.161392,-0.008 -0.168933,0.0785 -6.3e-5,-2.6e-4 -0.08561,0.0399 -0.108165,-0.043 -0.07826,0.005 -0.08865,0.13402 -0.01324,0.0208 -0.06108,0.0323 -0.07604,-10e-4 -0.0595,-0.002 -0.06438,0.0281 -0.08668,0.0376 v 1.9e-4 l -0.07655,0.0334 -0.03739,0.0162 -6.33e-4,-6.4e-4 -0.023,0.005 -0.04087,0.007 -0.05069,0.01 -0.08935,-0.0522 -0.04752,-0.028 -0.07965,-0.0162 -0.0429,0.031 -0.0084,0.14581 -0.03916,0.0873 -0.12426,0.10987 -0.126288,0.11121 -0.08801,0.12971 -0.232932,0.53163 -0.14593,0.2145 -0.04531,0.05 -0.152584,0.1683 -0.135349,0.105 -0.311885,0.24174 -0.295221,0.11032 -0.254286,0.052 -0.123626,5e-4 -0.234199,-0.0312 -0.210564,-0.0646 -0.231284,-0.1446 -0.253652,-0.20385 -0.367141,-0.36271 -0.05196,-0.0312 -0.01084,-0.007 -0.115642,-0.0739 -0.0858,0.002 -0.03358,0.0554 -0.01838,0.08 -0.01552,0.071 -0.04207,0.40345 0.0031,0.0234 0.02211,0.16615 0.278872,0.3897 0.08605,0.20701 0.01413,0.0236 0.05754,0.0966 0.04379,0.0737 0.0044,0.007 0.0953,0.28438 -0.06698,0.16057 0.03384,0.10753 -0.08466,0.0657 -0.01552,0.0928 0.250357,0.31384 0.05462,0.13846 -0.06102,0.19193 -0.09733,0.10589 -0.02718,0.0289 0.01369,0.0811 0.115198,0.10361 0.195737,0.17425 0.104363,0.25891 0.0794,0.0694 0.09226,-0.0196 0.05133,0.0392 0.07781,-0.001 0.07655,0.0765 0.04955,0.024 0.07832,0.039 0.06191,0.0806 0.01369,0.24783 0.115452,0.30795 0.0018,0.16697 6.34e-4,0.0237 0.07186,0.12344 0.02256,0.0975 -0.03827,0.25784 0.09156,0.0828 0.09929,-0.0203 0.06413,0.0101 0.103033,0.0858 0.124767,0.19016 0.122042,-0.0179 0.07743,0.0373 0.373983,0.33799 0.08485,0.0428 0.0047,0.003 0.06102,0.0306 0.07585,0.0765 0.117607,-0.0781 0.01305,-0.001 0.127872,-0.0113 0.05614,0.0378 0.107975,0.0728 0.141558,-0.002 0.306943,0.0941 0.134272,0.0344 0.27,0.16779 0.114756,0.071 0.06793,0.0552 0.09023,0.0736 0.180275,0.0776 0.154612,0.037 0.08377,0.0199 0.06305,0.0243 0.0016,-0.004 8.87e-4,2.5e-4 -0.0015,0.004 0.334823,0.12819 0.181352,0.0423 0.167792,0.0618 0.122106,0.0446 0.0896,0.001 0.126731,-0.10658 0.122739,-0.007 0.101955,0.0254 0.09948,-0.0167 0.157464,-0.097 0.03073,-0.0456 0.11165,-0.0532 0.376645,-0.0468 0.110066,0.0357 0.282611,-0.12293 0.189336,0.0527 0.167602,-0.0594 0.366189,0.0814 0.09733,0.0685 0.108799,0.12451 0.01331,5.7e-4 0.121155,0.002 -0.05063,0.0843 0.159877,0.16772 0.14441,0.2183 0.01,0.0288 0.10499,0.30821 0.0781,0.10918 0.0546,0.15239 0.003,0.0994 -0.0849,0.0648 -0.0139,0.0369 -0.005,0.0137 0.0172,0.0415 0.0321,-0.0175 0.061,-0.0338 0.0739,-0.0115 0.13091,0.0139 0.0864,0.009 0.13649,-0.0677 0.0904,-0.045 0.14529,0.0625 0.15968,-0.002 0.067,0.0299 0.18978,0.0861 0.0969,0.009 0.0358,-0.0235 0.0228,-0.0542 -0.0117,-0.0631 -0.0726,-0.0838 -0.16038,-0.18617 -0.0656,-0.0957 -0.05,-0.13852 -0.0155,-0.17704 -0.011,-0.11944 0.0199,-0.15696 0.0431,-0.056 0.0317,-0.1247 h 5.8e-4 l 0.008,-0.0326 0.0891,-0.11824 0.23597,-0.15164 0.25347,-0.22697 0.20036,-0.13212 0.20657,-0.0895 0.006,-0.0251 0.023,0.009 0.52542,-0.17863 0.009,-0.001 0.23395,-0.0408 1.57907,0.11121 0.0585,-0.0177 2.5e-4,-3.8e-4 0.0526,-0.14764 0.0283,-0.0274 0.0188,-0.0179 0.17362,-0.0764 0.0812,-0.0116 0.22533,0.0556 0.0923,0.0228 0.14777,-0.0828 0.10481,0.002 0.21652,-0.11824 0.13376,0.003 0.0509,-0.0203 0.26056,-0.18725 0.25099,-0.0719 0.0653,-0.0347 0.023,-0.0126 0.25727,-0.13586 0.16342,-0.12553 0.14105,-0.075 0.15448,-0.0399 0.40428,-0.0285 0.0813,-0.13547 0.17388,-0.0232 0.105,-0.1185 0.12014,-0.0489 0.0861,-0.12407 0.0722,-0.10398 0.10082,-0.0584 0.32316,-0.0203 0.38305,0.0475 0.0506,-0.0307 0.0866,-0.30891 0.0906,-0.058 0.24402,-0.35561 8.2e-4,-0.12958 2.5e-4,-0.10823 0.0401,-0.1541 -0.0272,-0.27824 0.0323,-0.28172 0.1517,-0.35802 0.13364,-0.14441 0.21551,-0.1458 0.10956,-0.0477 0.15518,-0.0261 v -3.8e-4 l 0.0228,-0.004 0.0395,-0.007 0.53436,-0.007 c 0.007,-0.006 0.19434,-0.003 0.19434,-0.003 l 0.17819,-0.002 0.45078,0.0802 0.0321,0.006 0.1524,0.0494 0.17577,0.13668 0.18604,0.18173 0.0349,0.0339 0.12052,0.0508 0.0364,0.0159 0.0995,-0.0159 0.14175,-0.0738 0.10696,-0.0904 0.14581,-0.0796 0.004,-0.005 0.0821,-0.12343 0.002,-0.003 0.002,4.5e-4 1.9e-4,-7e-4 -0.001,-3.2e-4 0.0324,-0.0491 0.28179,-0.10981 0.3314,-0.0193 0.0373,-0.0201 0.0207,-0.0111 0.0876,-0.10284 0.0821,-7e-4 0.19865,0.0719 0.13966,-0.0277 0.11089,0.0443 0.0862,-0.0102 0.16253,-0.0193 0.17451,0.12281 0.1017,0.013 0.35852,0.20974 0.0186,0.003 0.01,0.002 0.0205,0.003 0.0425,-0.0126 0.0632,-0.0183 0.008,-0.002 0.008,0.011 0.0407,0.0575 0.0559,0.008 0.0662,-0.0883 -0.0263,-0.04 -0.01,-0.0146 -0.12806,-0.026 -0.11501,-0.19663 0.1095,-0.11792 -0.17179,-0.21075 -0.0285,-0.0349 -0.01,-0.0148 -0.0594,-0.0902 -0.30073,-0.45845 -0.39173,-0.31271 -1.3e-4,2.6e-4 -0.13718,-0.10975 -8.9e-4,-6.3e-4 -0.048,-0.0378 -0.20923,-0.21278 -0.14942,-0.19834 -0.0196,-0.0427 -0.0309,-0.0673 -0.0895,-0.19504 -0.15601,-0.12014 -0.12711,-0.13883 -0.006,-0.008 -0.26233,-0.35649 -0.0431,-0.0598 -0.062,-0.0358 -0.13092,-8.8e-4 -0.0123,-0.0124 -0.007,-0.008 0.004,-0.005 0.0628,-0.0624 0.07,-0.0176 0.0302,-0.069 -0.13358,-0.38678 -8.8e-4,-0.0135 -0.01,-0.12356 0.10886,-0.5611 0.0139,-0.0684 0.18553,-0.37753 0.11495,-0.0942 0.12546,-0.24662 0.10747,-0.15765 0.10297,-0.10024 0.018,-0.0106 0.18591,-0.11254 0.1562,-0.022 0.14878,-0.021 0.25973,0.0801 0.24719,-0.005 0.0482,-0.005 0.11216,-0.0129 0.18446,-0.0581 0.0871,-0.0537 0.0452,-0.0693 0.0942,-0.31601 0.0303,-0.10056 0.0581,-0.10924 0.33622,-0.38704 0.25416,-0.23508 0.57149,-0.41904 0.27976,-0.16722 0.14283,-0.0854 1.27529,-0.56686 0.33141,-0.33597 0.17267,-0.1747 0.30548,-0.20499 0.35745,-0.14643 0.30757,-0.24345 0.0672,-0.0845 0.0847,-0.27267 0.0705,-0.017 0.0637,-0.13776 0.0181,-0.0392 0.25099,-0.17691 0.0284,-0.0141 0.97507,-0.48855 0.14168,0.0195 0.0759,-0.11361 0.28369,-0.0476 0.0522,-0.009 0.07,-0.0349 0.0595,-0.10132 v -0.02 l 0.008,-0.27076 0.0606,-0.0732 0.033,-0.17844 0.0311,-0.0412 0.0325,-0.0428 0.0803,-0.0565 -0.0139,-0.0336 z"
         inkscape:connector-curvature="0"
         style="fill:#d57800;stroke-width:0.06336557" />
    </g>
    <text
       inkscape:export-ydpi="244.93843"
       inkscape:export-xdpi="244.93843"
       inkscape:export-filename="C:\Users\Victor\Desktop\bitmap.png"
       id="text853"
       y="78.911774"
       x="104.24274"
       style="font-style:normal;font-variant:normal;font-weight:bold;font-stretch:normal;font-size:9.4177227px;line-height:1.25;font-family:Candara;-inkscape-font-specification:'Candara Bold';text-align:center;letter-spacing:0px;word-spacing:0px;text-anchor:middle;fill:#4b4b4b;fill-opacity:1;stroke:none;stroke-width:1.39132869"
       xml:space="preserve"><tspan
         style="font-style:normal;font-variant:normal;font-weight:bold;font-stretch:normal;font-size:6.70277786px;line-height:525.85656738px;font-family:Candara;-inkscape-font-specification:'Candara Bold';font-variant-ligatures:normal;font-variant-caps:normal;font-variant-numeric:normal;font-feature-settings:normal;text-align:center;letter-spacing:0px;writing-mode:lr-tb;text-anchor:middle;fill:#4b4b4b;fill-opacity:1;stroke-width:1.39132869"
         y="78.911774"
         x="104.24274"
         id="tspan851"
         sodipodi:role="line">Cyprus edition</tspan></text>
  </g>
  <g
     id="g5440">
    <g
       id="g5373">
      <g
         clip-path="url(#clipPath5416)"
         id="g5406">
        <path
           transform="matrix(0.96762853,0.03818277,-0.03818277,0.96762853,4.0607834,0.23974498)"
           d="m 59.07158,64.024347 -8.830992,2.689069 7.564156,5.2916 -9.187834,-0.895099 4.963361,7.783479 -8.145912,-4.342995 1.60694,9.090393 -5.86385,-7.129711 -1.994124,9.013377 -2.689068,-8.830991 -5.291601,7.564156 0.895099,-9.187834 -7.783479,4.963361 4.342995,-8.145912 -9.090393,1.606939 7.129711,-5.863849 -9.013377,-1.994124 8.830991,-2.689069 -7.564156,-5.2916 9.187834,0.895099 -4.963361,-7.783479 8.145912,4.342995 -1.606939,-9.090393 5.863849,7.129711 1.994124,-9.013377 2.689069,8.830991 5.2916,-7.564156 -0.895099,9.187834 7.783479,-4.963361 -4.342995,8.145912 9.090393,-1.606939 -7.129711,5.863849 z"
           inkscape:randomized="0"
           inkscape:rounded="-3.46945e-18"
           inkscape:flatsided="false"
           sodipodi:arg2="0.15742449"
           sodipodi:arg1="-0.038925052"
           sodipodi:r2="12.011725"
           sodipodi:r1="20.709871"
           sodipodi:cy="64.830276"
           sodipodi:cx="38.377396"
           sodipodi:sides="16"
           id="path1653"
           style="fill:#e8aa38;fill-opacity:1;stroke:none;stroke-width:2.58162689;stroke-linecap:square;stroke-miterlimit:4;stroke-dasharray:none;stroke-dashoffset:66.3714447;stroke-opacity:1"
           sodipodi:type="star"
           clip-path="none" />
        <circle
           r="8.6996231"
           cy="64.355247"
           cx="38.774124"
           id="path1655"
           style="fill:none;fill-opacity:0.51381776;stroke:#fdfdfd;stroke-width:1.05;stroke-linecap:square;stroke-miterlimit:4;stroke-dasharray:none;stroke-dashoffset:66.3714447;stroke-opacity:1" />
      </g>
    </g>
    <path
       id="path1657"
       transform="scale(0.26458333)"
       d="M 82.425781,254.03711 72.072266,270.4043 c 37.286214,0.4765 51.272374,3.64068 75.183594,16.49218 23.91121,-12.8515 37.89543,-16.01568 75.18164,-16.49218 l -10.35352,-16.36719 c -24.43103,1.93361 -43.33459,8.94139 -64.82812,19 -21.49353,-10.05861 -40.39905,-17.06639 -64.830079,-19 z"
       style="fill:#6c6c6c;fill-opacity:1;stroke:none;stroke-width:0.37795275;stroke-linecap:butt;stroke-linejoin:miter;stroke-miterlimit:4;stroke-dasharray:none;stroke-opacity:0.21699081"
       inkscape:connector-curvature="0" />
  </g>
</svg>
