<?xml version="1.0" encoding="UTF-8" standalone="no"?>
<svg
   xmlns:dc="http://purl.org/dc/elements/1.1/"
   xmlns:cc="http://creativecommons.org/ns#"
   xmlns:rdf="http://www.w3.org/1999/02/22-rdf-syntax-ns#"
   xmlns:svg="http://www.w3.org/2000/svg"
   xmlns="http://www.w3.org/2000/svg"
   xmlns:sodipodi="http://sodipodi.sourceforge.net/DTD/sodipodi-0.dtd"
   xmlns:inkscape="http://www.inkscape.org/namespaces/inkscape"
   width="210mm"
   height="297mm"
   viewBox="0 0 210 297"
   version="1.1"
   id="svg8"
   inkscape:version="1.0.1 (3bc2e813f5, 2020-09-07)"
   sodipodi:docname="view.svg"
   inkscape:export-filename="C:\Neo\Programming\Qt\Projects\TonatiuhProject\images\sun\viewer_viewSun.png"
   inkscape:export-xdpi="64.706482"
   inkscape:export-ydpi="64.706482">
  <defs
     id="defs2">
    <pattern
       y="0"
       x="0"
       height="6"
       width="6"
       patternUnits="userSpaceOnUse"
       id="EMFhbasepattern" />
    <pattern
       y="0"
       x="0"
       height="6"
       width="6"
       patternUnits="userSpaceOnUse"
       id="EMFhbasepattern-3" />
  </defs>
  <sodipodi:namedview
     id="base"
     pagecolor="#ffffff"
     bordercolor="#666666"
     borderopacity="1.0"
     inkscape:pageopacity="0.0"
     inkscape:pageshadow="2"
     inkscape:zoom="0.71628235"
     inkscape:cx="754.61725"
     inkscape:cy="871.72906"
     inkscape:document-units="mm"
     inkscape:current-layer="layer1"
     showgrid="false"
     inkscape:snap-grids="true"
     inkscape:snap-global="false"
     inkscape:snap-bbox="true"
     inkscape:bbox-nodes="true"
     inkscape:snap-bbox-midpoints="true"
     inkscape:window-width="1500"
     inkscape:window-height="938"
     inkscape:window-x="-6"
     inkscape:window-y="-6"
     inkscape:window-maximized="1"
     inkscape:document-rotation="0">
    <inkscape:grid
       type="xygrid"
       id="grid4535" />
  </sodipodi:namedview>
  <metadata
     id="metadata5">
    <rdf:RDF>
      <cc:Work
         rdf:about="">
        <dc:format>image/svg+xml</dc:format>
        <dc:type
           rdf:resource="http://purl.org/dc/dcmitype/StillImage" />
        <dc:title />
      </cc:Work>
    </rdf:RDF>
  </metadata>
  <g
     inkscape:label="Layer 1"
     inkscape:groupmode="layer"
     id="layer1">
    <g
       id="g4633"
       transform="matrix(0.57604769,0,0,0.57604769,-24.045899,89.185447)"
       style="fill:#5d5d5d;fill-opacity:1"
       inkscape:export-xdpi="44.017685"
       inkscape:export-ydpi="44.017685">
      <rect
         rx="4.5562291"
         y="40.513962"
         x="209.48196"
         height="22.180649"
         width="31.043123"
         id="rect4627"
         style="opacity:1;fill:#5d5d5d;fill-opacity:1;stroke:none;stroke-width:0.33;stroke-linecap:butt;stroke-linejoin:bevel;stroke-miterlimit:4;stroke-dasharray:none;stroke-dashoffset:37.7953;stroke-opacity:1;paint-order:markers fill stroke" />
      <path
         sodipodi:nodetypes="sssssssss"
         inkscape:connector-curvature="0"
         id="path4629"
         d="m 221.72802,37.374195 h 6.68879 c 2.73011,0 3.37847,2.257946 4.60479,4.697135 l 0.32321,0.642875 c 1.22632,2.439189 -2.19789,4.928 -4.928,4.928 h -6.68879 c -2.73012,0 -6.00172,-0.782586 -4.97417,-3.311944 l 0.69259,-1.704855 c 1.02755,-2.529358 1.55146,-5.251211 4.28158,-5.251211 z"
         style="opacity:1;fill:#5d5d5d;fill-opacity:1;stroke:none;stroke-width:0.33;stroke-linecap:butt;stroke-linejoin:bevel;stroke-miterlimit:4;stroke-dasharray:none;stroke-dashoffset:37.7953;stroke-opacity:1;paint-order:markers fill stroke" />
      <circle
         r="6.025578"
         cy="51.722546"
         cx="225.34682"
         id="circle4631"
         style="opacity:1;fill:#5d5d5d;fill-opacity:1;stroke:#d3d3d3;stroke-width:1.93;stroke-linecap:butt;stroke-linejoin:bevel;stroke-miterlimit:4;stroke-dasharray:none;stroke-dashoffset:37.7953;stroke-opacity:1;paint-order:markers fill stroke" />
    </g>
    <g
       transform="matrix(1.0132793,0.02367936,-0.02367936,1.0132793,-174.22496,-21.772953)"
       id="g919"
       inkscape:export-xdpi="50.936363"
       inkscape:export-ydpi="50.936363">
      <path
         id="path915"
         d="m 319.34332,76.824199 -3.10765,-2.27894 -1.16414,3.57133 -1.54889,-3.53187 -2.79196,2.51572 0.42422,-3.82784 -3.66999,0.77938 2.27895,-3.10765 -3.57134,-1.15427 3.53187,-1.55876 -2.51572,-2.782093 3.82784,0.41435 -0.77938,-3.66999 3.10765,2.27895 1.15427,-3.57134 1.55876,3.53188 2.7821,-2.51572 -0.41436,3.82784 3.66999,-0.77938 -2.27895,3.10765 3.57134,1.154273 -3.53187,1.54889 2.51572,2.79195 -3.83771,-0.42421 z"
         style="fill:#c3834e;fill-opacity:1;fill-rule:nonzero;stroke:none;stroke-width:0.12332"
         inkscape:connector-curvature="0" />
      <path
         id="path917"
         d="m 318.96843,69.503959 c 0.11838,2.36773 -1.68701,4.39017 -4.02516,4.50855 -2.348,0.11839 -4.34084,-1.70674 -4.45923,-4.07447 -0.12825,-2.367733 1.67715,-4.390173 4.02515,-4.508563 2.34801,-0.11839 4.34085,1.70674 4.45924,4.074483 z"
         style="fill:#e3c5ac;fill-opacity:1;fill-rule:nonzero;stroke:none;stroke-width:0.12332"
         inkscape:connector-curvature="0" />
    </g>
    <path
       id="path924"
       d="m 49.307519,72.127107 h 3.49247 v -23.7065 h -3.49247 z"
       style="fill:#7a9c80;fill-opacity:1;fill-rule:nonzero;stroke:none;stroke-width:0.264583"
       inkscape:connector-curvature="0" />
    <path
       id="path926"
       d="m 51.021999,45.033967 5.84196,8.50894 h -11.68391 z"
       style="fill:#7a9c80;fill-opacity:1;fill-rule:evenodd;stroke:none;stroke-width:0.264583"
       inkscape:connector-curvature="0" />
    <path
       id="path928"
       d="m 49.011189,68.359467 v 3.51364 h 23.70649 v -3.51364 z"
       style="fill:#af7373;fill-opacity:1;fill-rule:nonzero;stroke:none;stroke-width:0.264583"
       inkscape:connector-curvature="0" />
    <path
       id="path930"
       d="m 76.104319,70.095117 -8.53011,5.84196 v -11.68392 z"
       style="fill:#af7373;fill-opacity:1;fill-rule:evenodd;stroke:none;stroke-width:0.264583"
       inkscape:connector-curvature="0" />
    <path
       id="path932"
       d="m 61.372429,59.384867 v -1.39699 l 5.79962,-7.30245 c 0.42333,-0.508 0.80433,-0.95249 1.18533,-1.35466 h -6.32879 v -1.33349 h 8.12794 v 1.33349 l -6.37112,7.89511 -0.6985,0.80433 h 7.26012 v 1.35466 z"
       style="fill:#4f6b89;fill-opacity:1;fill-rule:nonzero;stroke:#4f6b89;stroke-width:0.698495px;stroke-linecap:butt;stroke-linejoin:miter;stroke-miterlimit:4;stroke-dasharray:none;stroke-opacity:1"
       inkscape:connector-curvature="0" />
    <path
       id="path934"
       d="m 51.021999,67.406967 2.83632,2.83632 -2.83632,2.83631 -2.81514,-2.83631 z"
       style="fill:#4f6b89;fill-opacity:1;fill-rule:nonzero;stroke:#4f6b89;stroke-width:5.46096px;stroke-linecap:square;stroke-linejoin:miter;stroke-miterlimit:4;stroke-dasharray:none;stroke-opacity:1"
       inkscape:connector-curvature="0" />
    <path
       inkscape:connector-curvature="0"
       style="fill:#7a9c80;fill-opacity:1;fill-rule:nonzero;stroke:none;stroke-width:0.264583"
       d="m 125.18878,74.383827 h 3.49247 v -23.70649 h -3.49247 z"
       id="path949"
       inkscape:export-xdpi="50.936363"
       inkscape:export-ydpi="50.936363" />
    <path
       inkscape:connector-curvature="0"
       style="fill:#7a9c80;fill-opacity:1;fill-rule:evenodd;stroke:none;stroke-width:0.264583"
       d="m 126.90326,47.290697 5.84196,8.50894 h -11.68391 z"
       id="path951"
       inkscape:export-xdpi="50.936363"
       inkscape:export-ydpi="50.936363" />
    <path
       inkscape:connector-curvature="0"
       style="fill:#af7373;fill-opacity:1;fill-rule:nonzero;stroke:none;stroke-width:0.264583"
       d="m 124.89245,70.616187 v 3.51364 h 23.70649 v -3.51364 z"
       id="path953"
       inkscape:export-xdpi="50.936363"
       inkscape:export-ydpi="50.936363" />
    <path
       inkscape:connector-curvature="0"
       style="fill:#af7373;fill-opacity:1;fill-rule:evenodd;stroke:none;stroke-width:0.264583"
       d="m 151.98558,72.351847 -8.53011,5.84195 v -11.68391 z"
       id="path955"
       inkscape:export-xdpi="50.936363"
       inkscape:export-ydpi="50.936363" />
    <path
       inkscape:connector-curvature="0"
       style="fill:#4f6b89;fill-opacity:1;fill-rule:nonzero;stroke:#4f6b89;stroke-width:5.46096px;stroke-linecap:square;stroke-linejoin:miter;stroke-miterlimit:4;stroke-dasharray:none;stroke-opacity:1"
       d="m 126.90326,69.663697 2.83632,2.83631 -2.83632,2.83632 -2.81514,-2.83632 z"
       id="path959"
       inkscape:export-xdpi="50.936363"
       inkscape:export-ydpi="50.936363" />
    <circle
       style="opacity:1;fill:#ae5252;fill-opacity:1;stroke:none;stroke-width:0.15;stroke-linecap:square;stroke-linejoin:miter;stroke-miterlimit:4;stroke-dasharray:none;stroke-dashoffset:28.3465;stroke-opacity:1;paint-order:markers fill stroke"
       id="path815"
       cx="93.391045"
       cy="154.57579"
       r="4.1125751"
       inkscape:export-xdpi="197.63788"
       inkscape:export-ydpi="197.63788" />
    <text
       xml:space="preserve"
       style="font-style:normal;font-variant:normal;font-weight:bold;font-stretch:normal;font-size:5.86147px;line-height:5.28664px;font-family:Arial;-inkscape-font-specification:'Arial Bold';font-variant-ligatures:none;font-variant-caps:normal;font-variant-numeric:normal;font-feature-settings:normal;text-align:center;letter-spacing:0px;word-spacing:0px;writing-mode:lr-tb;text-anchor:middle;fill:#ffffff;fill-opacity:0.501961;stroke:none;stroke-width:0.264583"
       x="91.8078"
       y="159.34822"
       id="text819"
       transform="scale(1.0168223,0.98345601)"
       inkscape:export-xdpi="197.63788"
       inkscape:export-ydpi="197.63788"><tspan
         sodipodi:role="line"
         id="tspan817"
         x="91.8078"
         y="159.34822"
         style="font-style:normal;font-variant:normal;font-weight:bold;font-stretch:normal;font-family:Arial;-inkscape-font-specification:'Arial Bold';fill:#ffffff;fill-opacity:0.501961;stroke-width:0.264583">X</tspan></text>
    <circle
       r="4.1125751"
       cy="154.30144"
       cx="109.08343"
       id="circle821"
       style="opacity:1;fill:#378b49;fill-opacity:1;stroke:none;stroke-width:0.15;stroke-linecap:square;stroke-linejoin:miter;stroke-miterlimit:4;stroke-dasharray:none;stroke-dashoffset:28.3465;stroke-opacity:1;paint-order:markers fill stroke"
       inkscape:export-filename="C:\Users\v.grigoriev\Desktop\yDisk.png"
       inkscape:export-xdpi="197.63788"
       inkscape:export-ydpi="197.63788" />
    <text
       transform="scale(1.0168223,0.98345601)"
       id="text825"
       y="159.06926"
       x="107.24057"
       style="font-style:normal;font-variant:normal;font-weight:bold;font-stretch:normal;font-size:5.86147px;line-height:5.28664px;font-family:Arial;-inkscape-font-specification:'Arial Bold';font-variant-ligatures:none;font-variant-caps:normal;font-variant-numeric:normal;font-feature-settings:normal;text-align:center;letter-spacing:0px;word-spacing:0px;writing-mode:lr-tb;text-anchor:middle;fill:#ffffff;fill-opacity:0.501961;stroke:none;stroke-width:0.264583"
       xml:space="preserve"
       inkscape:export-filename="C:\Users\v.grigoriev\Desktop\yDisk.png"
       inkscape:export-xdpi="197.63788"
       inkscape:export-ydpi="197.63788"><tspan
         style="font-style:normal;font-variant:normal;font-weight:bold;font-stretch:normal;font-family:Arial;-inkscape-font-specification:'Arial Bold';fill:#ffffff;fill-opacity:0.501961;stroke-width:0.264583"
         y="159.06926"
         x="107.24057"
         id="tspan823"
         sodipodi:role="line">Y</tspan></text>
    <circle
       style="opacity:1;fill:#535980;fill-opacity:1;stroke:none;stroke-width:0.15;stroke-linecap:square;stroke-linejoin:miter;stroke-miterlimit:4;stroke-dasharray:none;stroke-dashoffset:28.3465;stroke-opacity:1;paint-order:markers fill stroke"
       id="circle844"
       cx="122.32929"
       cy="154.22935"
       r="4.1125751"
       inkscape:export-filename="C:\Users\v.grigoriev\Desktop\zDisk.png"
       inkscape:export-xdpi="197.63788"
       inkscape:export-ydpi="197.63788" />
    <text
       xml:space="preserve"
       style="font-style:normal;font-variant:normal;font-weight:bold;font-stretch:normal;font-size:5.86147px;line-height:5.28664px;font-family:Arial;-inkscape-font-specification:'Arial Bold';font-variant-ligatures:none;font-variant-caps:normal;font-variant-numeric:normal;font-feature-settings:normal;text-align:center;letter-spacing:0px;word-spacing:0px;writing-mode:lr-tb;text-anchor:middle;fill:#ffffff;fill-opacity:0.501961;stroke:none;stroke-width:0.264583"
       x="120.26729"
       y="158.99596"
       id="text848"
       transform="scale(1.0168223,0.98345601)"
       inkscape:export-filename="C:\Users\v.grigoriev\Desktop\zDisk.png"
       inkscape:export-xdpi="197.63788"
       inkscape:export-ydpi="197.63788"><tspan
         sodipodi:role="line"
         id="tspan846"
         x="120.26729"
         y="158.99596"
         style="font-style:normal;font-variant:normal;font-weight:bold;font-stretch:normal;font-family:Arial;-inkscape-font-specification:'Arial Bold';fill:#ffffff;fill-opacity:0.501961;stroke-width:0.264583">Z</tspan></text>
    <rect
       style="fill:#4088a6;fill-opacity:1;stroke:none;stroke-width:0.5;stroke-linecap:square;stroke-miterlimit:4;stroke-dasharray:none;stroke-dashoffset:75.5906;stroke-opacity:1;paint-order:markers stroke fill"
       id="rect891"
       width="33.563435"
       height="31.735075"
       x="175.78329"
       y="227.57939" />
    <g
       transform="matrix(1.0132793,0.02367936,-0.02367936,1.0132793,-230.64287,125.54048)"
       id="g877"
       inkscape:export-xdpi="93.119759"
       inkscape:export-ydpi="93.119759">
      <path
         id="path873"
         d="m 319.34332,76.824199 -3.10765,-2.27894 -1.16414,3.57133 -1.54889,-3.53187 -2.79196,2.51572 0.42422,-3.82784 -3.66999,0.77938 2.27895,-3.10765 -3.57134,-1.15427 3.53187,-1.55876 -2.51572,-2.782093 3.82784,0.41435 -0.77938,-3.66999 3.10765,2.27895 1.15427,-3.57134 1.55876,3.53188 2.7821,-2.51572 -0.41436,3.82784 3.66999,-0.77938 -2.27895,3.10765 3.57134,1.154273 -3.53187,1.54889 2.51572,2.79195 -3.83771,-0.42421 z"
         style="fill:#c3834e;fill-opacity:1;fill-rule:nonzero;stroke:none;stroke-width:0.12332"
         inkscape:connector-curvature="0" />
      <path
         id="path875"
         d="m 318.96843,69.503959 c 0.11838,2.36773 -1.68701,4.39017 -4.02516,4.50855 -2.348,0.11839 -4.34084,-1.70674 -4.45923,-4.07447 -0.12825,-2.367733 1.67715,-4.390173 4.02515,-4.508563 2.34801,-0.11839 4.34085,1.70674 4.45924,4.074483 z"
         style="fill:#e3c5ac;fill-opacity:1;fill-rule:nonzero;stroke:none;stroke-width:0.12332"
         inkscape:connector-curvature="0" />
    </g>
    <path
       id="path933"
       d="m 135.05684,252.46377 c 0.0639,2.40198 -1.81337,4.40852 -4.18538,4.47311 -2.38198,0.0644 -4.35806,-1.83219 -4.42196,-4.23417 -0.0739,-2.40221 1.80338,-4.40876 4.18536,-4.47312 2.38199,-0.0644 4.35808,1.83219 4.42198,4.23418 z"
       style="fill:#e2d5cb;fill-opacity:0.5;fill-rule:nonzero;stroke:none;stroke-width:0.124992"
       inkscape:connector-curvature="0"
       inkscape:export-xdpi="93.118469"
       inkscape:export-ydpi="93.118469" />
    <path
       id="path922"
       style="fill:#c3834e;fill-opacity:0.5;fill-rule:nonzero;stroke:none;stroke-width:0.472411"
       d="M 494.18164 920.84961 L 489.44141 934.42383 L 477.74414 925.41797 L 480.40039 939.54297 L 465.77734 937.61328 L 475.16211 948.49219 L 461.49805 954.14648 L 475.07031 958.88672 L 466.06445 970.58398 L 480.18945 967.92773 L 478.22266 982.54883 L 489.14062 973.16406 L 494.75586 986.82812 L 499.5332 973.25586 L 511.23242 982.26172 L 508.53906 968.09766 L 523.19727 970.06641 L 513.8125 959.14844 L 527.47852 953.5332 L 513.9043 948.79297 L 522.91016 937.0957 L 508.78516 939.75195 L 510.71484 925.12891 L 499.83398 934.51562 L 494.18164 920.84961 z M 493.73828 938.19141 C 502.74112 937.948 510.20966 945.11497 510.45117 954.19336 C 510.69268 963.27171 503.59785 970.85549 494.63281 971.09961 C 485.63002 971.34301 478.16143 964.17601 477.91992 955.09766 C 477.64061 946.01844 484.73552 938.43466 493.73828 938.19141 z "
       transform="scale(0.26458333)"
       inkscape:export-xdpi="93.118469"
       inkscape:export-ydpi="93.118469" />
  </g>
</svg>
