# Blender v2.83.0 OBJ File: 'parabola.blend'
# www.blender.org
v -0.500000 -0.500000 0.125000
v -0.500000 -0.250000 0.078125
v -0.500000 0.000000 0.062500
v -0.500000 0.250000 0.078125
v -0.500000 0.500000 0.125000
v -0.250000 -0.500000 0.078125
v -0.250000 -0.250000 0.031250
v -0.250000 0.000000 0.015625
v -0.250000 0.250000 0.031250
v -0.250000 0.500000 0.078125
v 0.000000 -0.500000 0.062500
v 0.000000 -0.250000 0.015625
v 0.000000 0.000000 0.000000
v 0.000000 0.250000 0.015625
v 0.000000 0.500000 0.062500
v 0.250000 -0.500000 0.078125
v 0.250000 -0.250000 0.031250
v 0.250000 0.000000 0.015625
v 0.250000 0.250000 0.031250
v 0.250000 0.500000 0.078125
v 0.500000 -0.500000 0.125000
v 0.500000 -0.250000 0.078125
v 0.500000 0.000000 0.062500
v 0.500000 0.250000 0.078125
v 0.500000 0.500000 0.125000
vn 0.1812 0.1812 0.9666
vn 0.1839 0.0613 0.9810
vn 0.1839 -0.0613 0.9810
vn 0.1812 -0.1812 0.9666
vn 0.0613 0.1839 0.9810
vn 0.0623 0.0623 0.9961
vn 0.0623 -0.0623 0.9961
vn 0.0613 -0.1839 0.9810
vn -0.0613 0.1839 0.9810
vn -0.0623 0.0623 0.9961
vn -0.0623 -0.0623 0.9961
vn -0.0613 -0.1839 0.9810
vn -0.1812 0.1812 0.9666
vn -0.1839 0.0613 0.9810
vn -0.1839 -0.0613 0.9810
vn -0.1812 -0.1812 0.9666
s off
f 6//1 2//1 1//1
f 7//2 3//2 2//2
f 3//3 9//3 4//3
f 4//4 10//4 5//4
f 11//5 7//5 6//5
f 12//6 8//6 7//6
f 8//7 14//7 9//7
f 9//8 15//8 10//8
f 11//9 17//9 12//9
f 12//10 18//10 13//10
f 18//11 14//11 13//11
f 19//12 15//12 14//12
f 16//13 22//13 17//13
f 17//14 23//14 18//14
f 23//15 19//15 18//15
f 24//16 20//16 19//16
f 6//1 7//1 2//1
f 7//2 8//2 3//2
f 3//3 8//3 9//3
f 4//4 9//4 10//4
f 11//5 12//5 7//5
f 12//6 13//6 8//6
f 8//7 13//7 14//7
f 9//8 14//8 15//8
f 11//9 16//9 17//9
f 12//10 17//10 18//10
f 18//11 19//11 14//11
f 19//12 20//12 15//12
f 16//13 21//13 22//13
f 17//14 22//14 23//14
f 23//15 24//15 19//15
f 24//16 25//16 20//16
